REM DIRINDEX 1\2,1\3\5,1\3\6,1\4\7,1\4\8
REM DIRNAME cjc139,folder01,folder02,folder03,folder04,folder05,folder06,folder07
TITLE ""
FILE "JE_14.mp3" MP3
  TRACK 01 AUDIO
    TITLE "0:"
    INDEX 01 00:00:00
  TRACK 02 AUDIO
    TITLE "7:cjc139_3601"
    INDEX 01 00:00:17
  TRACK 03 AUDIO
    TITLE "0:"
    INDEX 01 00:02:55
  TRACK 04 AUDIO
    TITLE "8:cjc139_3602"
    INDEX 01 00:05:40
  TRACK 05 AUDIO
    TITLE "0:"
    INDEX 01 00:07:68
  TRACK 06 AUDIO
    TITLE "7:cjc139_3603"
    INDEX 01 00:10:57
  TRACK 07 AUDIO
    TITLE "0:"
    INDEX 01 00:13:49
  TRACK 08 AUDIO
    TITLE "8:cjc139_3604"
    INDEX 01 00:16:36
  TRACK 09 AUDIO
    TITLE "0:"
    INDEX 01 00:19:26
  TRACK 10 AUDIO
    TITLE "7:cjc139_3605"
    INDEX 01 00:22:13
  TRACK 11 AUDIO
    TITLE "0:"
    INDEX 01 00:24:29
  TRACK 12 AUDIO
    TITLE "8:cjc139_3606"
    INDEX 01 00:27:16
  TRACK 13 AUDIO
    TITLE "0:"
    INDEX 01 00:29:74
  TRACK 14 AUDIO
    TITLE "7:cjc139_3607"
    INDEX 01 00:32:58
  TRACK 15 AUDIO
    TITLE "0:"
    INDEX 01 00:34:73
  TRACK 16 AUDIO
    TITLE "8:cjc139_3608"
    INDEX 01 00:37:57
  TRACK 17 AUDIO
    TITLE "0:"
    INDEX 01 00:39:58
  TRACK 18 AUDIO
    TITLE "7:cjc139_3609"
    INDEX 01 00:42:43
  TRACK 19 AUDIO
    TITLE "0:"
    INDEX 01 00:45:51
  TRACK 20 AUDIO
    TITLE "8:cjc139_3610"
    INDEX 01 00:48:34
  TRACK 21 AUDIO
    TITLE "0:"
    INDEX 01 00:51:07
  TRACK 22 AUDIO
    TITLE "7:cjc139_3611"
    INDEX 01 00:53:68
  TRACK 23 AUDIO
    TITLE "0:"
    INDEX 01 00:56:29
  TRACK 24 AUDIO
    TITLE "8:cjc139_3612"
    INDEX 01 00:59:14
  TRACK 25 AUDIO
    TITLE "0:"
    INDEX 01 01:01:48
  TRACK 26 AUDIO
    TITLE "7:cjc139_3613"
    INDEX 01 01:04:31
  TRACK 27 AUDIO
    TITLE "0:"
    INDEX 01 01:06:26
  TRACK 28 AUDIO
    TITLE "8:cjc139_3614"
    INDEX 01 01:09:14
  TRACK 29 AUDIO
    TITLE "0:"
    INDEX 01 01:11:27
  TRACK 30 AUDIO
    TITLE "7:cjc139_3615"
    INDEX 01 01:14:14
  TRACK 31 AUDIO
    TITLE "0:"
    INDEX 01 01:17:37
  TRACK 32 AUDIO
    TITLE "8:cjc139_3616"
    INDEX 01 01:20:22
  TRACK 33 AUDIO
    TITLE "0:"
    INDEX 01 01:23:30
  TRACK 34 AUDIO
    TITLE "7:cjc139_3617"
    INDEX 01 01:26:15
  TRACK 35 AUDIO
    TITLE "0:"
    INDEX 01 01:29:15
  TRACK 36 AUDIO
    TITLE "8:cjc139_3618"
    INDEX 01 01:32:00
  TRACK 37 AUDIO
    TITLE "0:"
    INDEX 01 01:34:55
  TRACK 38 AUDIO
    TITLE "7:cjc139_3619"
    INDEX 01 01:37:40
  TRACK 39 AUDIO
    TITLE "0:"
    INDEX 01 01:40:23
  TRACK 40 AUDIO
    TITLE "8:cjc139_3620"
    INDEX 01 01:43:07
  TRACK 41 AUDIO
    TITLE "0:"
    INDEX 01 01:45:57
  TRACK 42 AUDIO
    TITLE "7:cjc139_3621"
    INDEX 01 01:48:42
  TRACK 43 AUDIO
    TITLE "0:"
    INDEX 01 01:51:11
  TRACK 44 AUDIO
    TITLE "8:cjc139_3622"
    INDEX 01 01:53:70
  TRACK 45 AUDIO
    TITLE "0:"
    INDEX 01 01:56:37
  TRACK 46 AUDIO
    TITLE "7:cjc139_3623"
    INDEX 01 01:59:20
  TRACK 47 AUDIO
    TITLE "0:"
    INDEX 01 02:02:50
  TRACK 48 AUDIO
    TITLE "8:cjc139_3624"
    INDEX 01 02:05:34
  TRACK 49 AUDIO
    TITLE "0:"
    INDEX 01 02:08:11
  TRACK 50 AUDIO
    TITLE "7:cjc139_3625"
    INDEX 01 02:10:69
  TRACK 51 AUDIO
    TITLE "0:"
    INDEX 01 02:13:59
  TRACK 52 AUDIO
    TITLE "8:cjc139_3626"
    INDEX 01 02:16:42
  TRACK 53 AUDIO
    TITLE "0:"
    INDEX 01 02:18:74
  TRACK 54 AUDIO
    TITLE "7:cjc139_3627"
    INDEX 01 02:21:61
  TRACK 55 AUDIO
    TITLE "0:"
    INDEX 01 02:24:53
  TRACK 56 AUDIO
    TITLE "8:cjc139_3628"
    INDEX 01 02:27:36
  TRACK 57 AUDIO
    TITLE "0:"
    INDEX 01 02:30:25
  TRACK 58 AUDIO
    TITLE "7:cjc139_3629"
    INDEX 01 02:33:09
  TRACK 59 AUDIO
    TITLE "0:"
    INDEX 01 02:35:51
  TRACK 60 AUDIO
    TITLE "8:cjc139_3630"
    INDEX 01 02:38:38
  TRACK 61 AUDIO
    TITLE "0:"
    INDEX 01 02:40:72
  TRACK 62 AUDIO
    TITLE "7:cjc139_3631"
    INDEX 01 02:43:57
  TRACK 63 AUDIO
    TITLE "0:"
    INDEX 01 02:47:19
  TRACK 64 AUDIO
    TITLE "8:cjc139_3632"
    INDEX 01 02:50:04
  TRACK 65 AUDIO
    TITLE "0:"
    INDEX 01 02:52:67
  TRACK 66 AUDIO
    TITLE "7:cjc139_3633"
    INDEX 01 02:55:52
  TRACK 67 AUDIO
    TITLE "0:"
    INDEX 01 02:58:19
  TRACK 68 AUDIO
    TITLE "8:cjc139_3634"
    INDEX 01 03:01:02
  TRACK 69 AUDIO
    TITLE "0:"
    INDEX 01 03:03:42
  TRACK 70 AUDIO
    TITLE "7:cjc139_3635"
    INDEX 01 03:06:28
  TRACK 71 AUDIO
    TITLE "0:"
    INDEX 01 03:08:74
  TRACK 72 AUDIO
    TITLE "8:cjc139_3636"
    INDEX 01 03:11:57
  TRACK 73 AUDIO
    TITLE "0:"
    INDEX 01 03:14:08
  TRACK 74 AUDIO
    TITLE "7:cjc139_3637"
    INDEX 01 03:16:70
  TRACK 75 AUDIO
    TITLE "0:"
    INDEX 01 03:19:70
  TRACK 76 AUDIO
    TITLE "8:cjc139_3638"
    INDEX 01 03:22:55
  TRACK 77 AUDIO
    TITLE "0:"
    INDEX 01 03:25:24
  TRACK 78 AUDIO
    TITLE "7:cjc139_3639"
    INDEX 01 03:28:08
  TRACK 79 AUDIO
    TITLE "0:"
    INDEX 01 03:32:34
  TRACK 80 AUDIO
    TITLE "8:cjc139_3640"
    INDEX 01 03:35:20
  TRACK 81 AUDIO
    TITLE "0:"
    INDEX 01 03:38:17
  TRACK 82 AUDIO
    TITLE "7:cjc139_3641"
    INDEX 01 03:40:74
  TRACK 83 AUDIO
    TITLE "0:"
    INDEX 01 03:43:61
  TRACK 84 AUDIO
    TITLE "8:cjc139_3642"
    INDEX 01 03:46:45
  TRACK 85 AUDIO
    TITLE "0:"
    INDEX 01 03:49:28
  TRACK 86 AUDIO
    TITLE "7:cjc139_3643"
    INDEX 01 03:52:15
  TRACK 87 AUDIO
    TITLE "0:"
    INDEX 01 03:55:05
  TRACK 88 AUDIO
    TITLE "8:cjc139_3644"
    INDEX 01 03:57:67
  TRACK 89 AUDIO
    TITLE "0:"
    INDEX 01 04:00:65
  TRACK 90 AUDIO
    TITLE "7:cjc139_3645"
    INDEX 01 04:03:52
  TRACK 91 AUDIO
    TITLE "0:"
    INDEX 01 04:06:70
  TRACK 92 AUDIO
    TITLE "8:cjc139_3646"
    INDEX 01 04:09:54
  TRACK 93 AUDIO
    TITLE "0:"
    INDEX 01 04:12:74
  TRACK 94 AUDIO
    TITLE "7:cjc139_3647"
    INDEX 01 04:15:61
  TRACK 95 AUDIO
    TITLE "0:"
    INDEX 01 04:18:24
  TRACK 96 AUDIO
    TITLE "8:cjc139_3648"
    INDEX 01 04:21:10
  TRACK 97 AUDIO
    TITLE "0:"
    INDEX 01 04:24:50
  TRACK 98 AUDIO
    TITLE "7:cjc139_3649"
    INDEX 01 04:27:37
  TRACK 99 AUDIO
    TITLE "0:"
    INDEX 01 04:30:43
  TRACK 100 AUDIO
    TITLE "8:cjc139_3650"
    INDEX 01 04:33:27
  TRACK 101 AUDIO
    TITLE "0:"
    INDEX 01 04:37:21
  TRACK 102 AUDIO
    TITLE "7:cjc139_3651"
    INDEX 01 04:40:10
  TRACK 103 AUDIO
    TITLE "0:"
    INDEX 01 04:42:38
  TRACK 104 AUDIO
    TITLE "8:cjc139_3652"
    INDEX 01 04:45:23
  TRACK 105 AUDIO
    TITLE "0:"
    INDEX 01 04:48:56
  TRACK 106 AUDIO
    TITLE "7:cjc139_3653"
    INDEX 01 04:51:39
  TRACK 107 AUDIO
    TITLE "0:"
    INDEX 01 04:53:71
  TRACK 108 AUDIO
    TITLE "8:cjc139_3654"
    INDEX 01 04:56:58
  TRACK 109 AUDIO
    TITLE "0:"
    INDEX 01 04:59:01
  TRACK 110 AUDIO
    TITLE "7:cjc139_3655"
    INDEX 01 05:01:63
  TRACK 111 AUDIO
    TITLE "0:"
    INDEX 01 05:04:04
  TRACK 112 AUDIO
    TITLE "8:cjc139_3656"
    INDEX 01 05:06:62
  TRACK 113 AUDIO
    TITLE "0:"
    INDEX 01 05:09:17
  TRACK 114 AUDIO
    TITLE "7:cjc139_3657"
    INDEX 01 05:12:02
  TRACK 115 AUDIO
    TITLE "0:"
    INDEX 01 05:15:08
  TRACK 116 AUDIO
    TITLE "8:cjc139_3658"
    INDEX 01 05:17:64
  TRACK 117 AUDIO
    TITLE "0:"
    INDEX 01 05:20:37
  TRACK 118 AUDIO
    TITLE "7:cjc139_3659"
    INDEX 01 05:23:21
  TRACK 119 AUDIO
    TITLE "0:"
    INDEX 01 05:25:38
  TRACK 120 AUDIO
    TITLE "8:cjc139_3660"
    INDEX 01 05:28:26
  TRACK 121 AUDIO
    TITLE "0:"
    INDEX 01 05:31:09
  TRACK 122 AUDIO
    TITLE "7:cjc139_3661"
    INDEX 01 05:33:71
  TRACK 123 AUDIO
    TITLE "0:"
    INDEX 01 05:35:56
  TRACK 124 AUDIO
    TITLE "8:cjc139_3662"
    INDEX 01 05:38:44
  TRACK 125 AUDIO
    TITLE "0:"
    INDEX 01 05:40:41
  TRACK 126 AUDIO
    TITLE "7:cjc139_3663"
    INDEX 01 05:43:26
  TRACK 127 AUDIO
    TITLE "0:"
    INDEX 01 05:45:62
  TRACK 128 AUDIO
    TITLE "8:cjc139_3664"
    INDEX 01 05:48:47
  TRACK 129 AUDIO
    TITLE "0:"
    INDEX 01 05:51:08
  TRACK 130 AUDIO
    TITLE "7:cjc139_3665"
    INDEX 01 05:53:68
  TRACK 131 AUDIO
    TITLE "0:"
    INDEX 01 05:57:52
  TRACK 132 AUDIO
    TITLE "8:cjc139_3666"
    INDEX 01 06:00:36
  TRACK 133 AUDIO
    TITLE "0:"
    INDEX 01 06:04:22
  TRACK 134 AUDIO
    TITLE "7:cjc139_3667"
    INDEX 01 06:07:09
  TRACK 135 AUDIO
    TITLE "0:"
    INDEX 01 06:09:70
  TRACK 136 AUDIO
    TITLE "8:cjc139_3668"
    INDEX 01 06:12:57
  TRACK 137 AUDIO
    TITLE "0:"
    INDEX 01 06:15:53
